<mxfile host="65bd71144e">
    <diagram id="6eO5ICpQvn0htwNRXCNk" name="Page-1">
        <mxGraphModel dx="2114" dy="2185" grid="1" gridSize="10" guides="1" tooltips="1" connect="1" arrows="1" fold="1" page="1" pageScale="1" pageWidth="850" pageHeight="1100" math="0" shadow="0">
            <root>
                <mxCell id="0"/>
                <mxCell id="1" parent="0"/>
                <mxCell id="12" value="stat" style="rounded=1;whiteSpace=wrap;html=1;verticalAlign=top;arcSize=10;fillColor=#6a00ff;fontColor=#ffffff;strokeColor=#000000;" parent="1" vertex="1">
                    <mxGeometry x="40" y="110" width="150" height="60" as="geometry"/>
                </mxCell>
                <mxCell id="2" value="stat" style="rounded=1;whiteSpace=wrap;html=1;verticalAlign=middle;arcSize=10;fillColor=#0050ef;fontColor=#ffffff;strokeColor=#000000;" parent="1" vertex="1">
                    <mxGeometry x="80" y="40" width="70" height="30" as="geometry"/>
                </mxCell>
                <mxCell id="3" value="begin" style="rounded=1;whiteSpace=wrap;html=1;verticalAlign=middle;arcSize=10;fillColor=#fa6800;fontColor=#000000;fontSize=22;strokeColor=#000000;" parent="1" vertex="1">
                    <mxGeometry x="335" y="35" width="70" height="40" as="geometry"/>
                </mxCell>
                <mxCell id="4" value="S" style="rounded=1;whiteSpace=wrap;html=1;verticalAlign=middle;arcSize=10;fillColor=#a20025;fontColor=#ffffff;fontSize=22;strokeColor=#000000;" parent="1" vertex="1">
                    <mxGeometry x="420" y="35" width="70" height="40" as="geometry"/>
                </mxCell>
                <mxCell id="5" value=";" style="rounded=1;whiteSpace=wrap;html=1;verticalAlign=middle;arcSize=10;fillColor=#a20025;fontColor=#ffffff;fontSize=22;strokeColor=#000000;" parent="1" vertex="1">
                    <mxGeometry x="510" y="35" width="70" height="40" as="geometry"/>
                </mxCell>
                <mxCell id="6" value="S" style="rounded=1;whiteSpace=wrap;html=1;verticalAlign=middle;arcSize=10;fillColor=#a20025;fontColor=#ffffff;fontSize=22;strokeColor=#000000;" parent="1" vertex="1">
                    <mxGeometry x="600" y="35" width="70" height="40" as="geometry"/>
                </mxCell>
                <mxCell id="7" value=";" style="rounded=1;whiteSpace=wrap;html=1;verticalAlign=middle;arcSize=10;fillColor=#a20025;fontColor=#ffffff;fontSize=22;strokeColor=#000000;" parent="1" vertex="1">
                    <mxGeometry x="690" y="35" width="70" height="40" as="geometry"/>
                </mxCell>
                <mxCell id="8" value="end" style="rounded=1;whiteSpace=wrap;html=1;verticalAlign=middle;arcSize=10;fillColor=#a20025;fontColor=#ffffff;fontSize=22;strokeColor=#000000;" parent="1" vertex="1">
                    <mxGeometry x="780" y="35" width="70" height="40" as="geometry"/>
                </mxCell>
                <mxCell id="11" value="begin" style="rounded=1;whiteSpace=wrap;html=1;fillColor=#d80073;fontColor=#ffffff;fontSize=17;verticalAlign=middle;strokeColor=#000000;" parent="1" vertex="1">
                    <mxGeometry x="50" y="140" width="60" height="25" as="geometry"/>
                </mxCell>
                <mxCell id="15" value="statlist" style="rounded=1;whiteSpace=wrap;html=1;fillColor=#0050ef;fontColor=#ffffff;strokeColor=#000000;" parent="1" vertex="1">
                    <mxGeometry x="120" y="140" width="60" height="25" as="geometry"/>
                </mxCell>
                <mxCell id="16" value="begin" style="rounded=1;whiteSpace=wrap;html=1;verticalAlign=middle;arcSize=10;fillColor=#d80073;fontColor=#ffffff;fontSize=22;strokeColor=#000000;" parent="1" vertex="1">
                    <mxGeometry x="335" y="120" width="70" height="40" as="geometry"/>
                </mxCell>
                <mxCell id="17" value="S" style="rounded=1;whiteSpace=wrap;html=1;verticalAlign=middle;arcSize=10;fillColor=#fa6800;fontColor=#000000;fontSize=22;strokeColor=#000000;" parent="1" vertex="1">
                    <mxGeometry x="420" y="120" width="70" height="40" as="geometry"/>
                </mxCell>
                <mxCell id="18" value=";" style="rounded=1;whiteSpace=wrap;html=1;verticalAlign=middle;arcSize=10;fillColor=#a20025;fontColor=#ffffff;fontSize=22;strokeColor=#000000;" parent="1" vertex="1">
                    <mxGeometry x="510" y="120" width="70" height="40" as="geometry"/>
                </mxCell>
                <mxCell id="19" value="S" style="rounded=1;whiteSpace=wrap;html=1;verticalAlign=middle;arcSize=10;fillColor=#a20025;fontColor=#ffffff;fontSize=22;strokeColor=#000000;" parent="1" vertex="1">
                    <mxGeometry x="600" y="120" width="70" height="40" as="geometry"/>
                </mxCell>
                <mxCell id="20" value=";" style="rounded=1;whiteSpace=wrap;html=1;verticalAlign=middle;arcSize=10;fillColor=#a20025;fontColor=#ffffff;fontSize=22;strokeColor=#000000;" parent="1" vertex="1">
                    <mxGeometry x="690" y="120" width="70" height="40" as="geometry"/>
                </mxCell>
                <mxCell id="21" value="end" style="rounded=1;whiteSpace=wrap;html=1;verticalAlign=middle;arcSize=10;fillColor=#a20025;fontColor=#ffffff;fontSize=22;strokeColor=#000000;" parent="1" vertex="1">
                    <mxGeometry x="780" y="120" width="70" height="40" as="geometry"/>
                </mxCell>
                <mxCell id="28" value="statlist" style="rounded=1;whiteSpace=wrap;html=1;verticalAlign=top;arcSize=10;fillColor=#6a00ff;fontColor=#ffffff;strokeColor=#000000;" parent="1" vertex="1">
                    <mxGeometry x="40" y="300" width="220" height="60" as="geometry"/>
                </mxCell>
                <mxCell id="29" value="stat" style="rounded=1;whiteSpace=wrap;html=1;fillColor=#0050ef;fontColor=#ffffff;strokeColor=#000000;" parent="1" vertex="1">
                    <mxGeometry x="50" y="330" width="60" height="25" as="geometry"/>
                </mxCell>
                <mxCell id="30" value=";" style="rounded=1;whiteSpace=wrap;html=1;fillColor=#a20025;fontColor=#ffffff;fontSize=17;strokeColor=#000000;" parent="1" vertex="1">
                    <mxGeometry x="120" y="330" width="60" height="25" as="geometry"/>
                </mxCell>
                <mxCell id="31" value="statlist" style="rounded=1;whiteSpace=wrap;html=1;fillColor=#6a00ff;fontColor=#ffffff;strokeColor=#000000;" parent="1" vertex="1">
                    <mxGeometry x="190" y="330" width="60" height="25" as="geometry"/>
                </mxCell>
                <mxCell id="32" value="stat" style="rounded=1;whiteSpace=wrap;html=1;verticalAlign=top;arcSize=10;fillColor=#6a00ff;fontColor=#ffffff;strokeColor=#000000;" parent="1" vertex="1">
                    <mxGeometry x="40" y="210" width="150" height="60" as="geometry"/>
                </mxCell>
                <mxCell id="33" value="begin" style="rounded=1;whiteSpace=wrap;html=1;fillColor=#d80073;fontColor=#ffffff;fontSize=17;verticalAlign=middle;strokeColor=#000000;" parent="1" vertex="1">
                    <mxGeometry x="50" y="240" width="60" height="25" as="geometry"/>
                </mxCell>
                <mxCell id="35" style="edgeStyle=orthogonalEdgeStyle;html=1;exitX=0.5;exitY=1;exitDx=0;exitDy=0;entryX=0.5;entryY=0;entryDx=0;entryDy=0;fontSize=17;endArrow=open;endFill=0;endSize=10;strokeColor=#000000;" parent="1" source="34" target="28" edge="1">
                    <mxGeometry relative="1" as="geometry"/>
                </mxCell>
                <mxCell id="34" value="statlist" style="rounded=1;whiteSpace=wrap;html=1;fillColor=#6a00ff;fontColor=#ffffff;strokeColor=#000000;" parent="1" vertex="1">
                    <mxGeometry x="120" y="240" width="60" height="25" as="geometry"/>
                </mxCell>
                <mxCell id="36" value="begin" style="rounded=1;whiteSpace=wrap;html=1;verticalAlign=middle;arcSize=10;fillColor=#d80073;fontColor=#ffffff;fontSize=22;strokeColor=#000000;" parent="1" vertex="1">
                    <mxGeometry x="335" y="220" width="70" height="40" as="geometry"/>
                </mxCell>
                <mxCell id="37" value="S" style="rounded=1;whiteSpace=wrap;html=1;verticalAlign=middle;arcSize=10;fillColor=#fa6800;fontColor=#000000;fontSize=22;strokeColor=#000000;" parent="1" vertex="1">
                    <mxGeometry x="420" y="220" width="70" height="40" as="geometry"/>
                </mxCell>
                <mxCell id="38" value=";" style="rounded=1;whiteSpace=wrap;html=1;verticalAlign=middle;arcSize=10;fillColor=#a20025;fontColor=#ffffff;fontSize=22;strokeColor=#000000;" parent="1" vertex="1">
                    <mxGeometry x="510" y="220" width="70" height="40" as="geometry"/>
                </mxCell>
                <mxCell id="39" value="S" style="rounded=1;whiteSpace=wrap;html=1;verticalAlign=middle;arcSize=10;fillColor=#a20025;fontColor=#ffffff;fontSize=22;strokeColor=#000000;" parent="1" vertex="1">
                    <mxGeometry x="600" y="220" width="70" height="40" as="geometry"/>
                </mxCell>
                <mxCell id="40" value=";" style="rounded=1;whiteSpace=wrap;html=1;verticalAlign=middle;arcSize=10;fillColor=#a20025;fontColor=#ffffff;fontSize=22;strokeColor=#000000;" parent="1" vertex="1">
                    <mxGeometry x="690" y="220" width="70" height="40" as="geometry"/>
                </mxCell>
                <mxCell id="41" value="end" style="rounded=1;whiteSpace=wrap;html=1;verticalAlign=middle;arcSize=10;fillColor=#a20025;fontColor=#ffffff;fontSize=22;strokeColor=#000000;" parent="1" vertex="1">
                    <mxGeometry x="780" y="220" width="70" height="40" as="geometry"/>
                </mxCell>
                <mxCell id="42" value="statlist" style="rounded=1;whiteSpace=wrap;html=1;verticalAlign=top;arcSize=10;fillColor=#0050ef;fontColor=#ffffff;strokeColor=#000000;" parent="1" vertex="1">
                    <mxGeometry x="40" y="480" width="220" height="60" as="geometry"/>
                </mxCell>
                <mxCell id="54" style="edgeStyle=orthogonalEdgeStyle;html=1;exitX=0.5;exitY=1;exitDx=0;exitDy=0;entryX=0.5;entryY=0;entryDx=0;entryDy=0;fontSize=17;endArrow=open;endFill=0;endSize=10;strokeColor=#000000;" parent="1" source="43" target="50" edge="1">
                    <mxGeometry relative="1" as="geometry"/>
                </mxCell>
                <mxCell id="43" value="stat" style="rounded=1;whiteSpace=wrap;html=1;fillColor=#6a00ff;fontColor=#ffffff;strokeColor=#000000;" parent="1" vertex="1">
                    <mxGeometry x="50" y="510" width="60" height="25" as="geometry"/>
                </mxCell>
                <mxCell id="44" value=";" style="rounded=1;whiteSpace=wrap;html=1;fillColor=#a20025;fontColor=#ffffff;fontSize=17;strokeColor=#000000;" parent="1" vertex="1">
                    <mxGeometry x="120" y="510" width="60" height="25" as="geometry"/>
                </mxCell>
                <mxCell id="45" value="statlist" style="rounded=1;whiteSpace=wrap;html=1;fillColor=#6a00ff;fontColor=#ffffff;strokeColor=#000000;" parent="1" vertex="1">
                    <mxGeometry x="190" y="510" width="60" height="25" as="geometry"/>
                </mxCell>
                <mxCell id="46" value="stat" style="rounded=1;whiteSpace=wrap;html=1;verticalAlign=top;arcSize=10;fillColor=#6a00ff;fontColor=#ffffff;strokeColor=#000000;" parent="1" vertex="1">
                    <mxGeometry x="40" y="390" width="150" height="60" as="geometry"/>
                </mxCell>
                <mxCell id="47" value="begin" style="rounded=1;whiteSpace=wrap;html=1;fillColor=#d80073;fontColor=#ffffff;fontSize=17;verticalAlign=middle;strokeColor=#000000;" parent="1" vertex="1">
                    <mxGeometry x="50" y="420" width="60" height="25" as="geometry"/>
                </mxCell>
                <mxCell id="49" style="edgeStyle=orthogonalEdgeStyle;html=1;exitX=0.5;exitY=1;exitDx=0;exitDy=0;entryX=0.5;entryY=0;entryDx=0;entryDy=0;fontSize=17;endArrow=open;endFill=0;endSize=10;strokeColor=#000000;" parent="1" source="48" target="42" edge="1">
                    <mxGeometry relative="1" as="geometry"/>
                </mxCell>
                <mxCell id="48" value="statlist" style="rounded=1;whiteSpace=wrap;html=1;fillColor=#6a00ff;fontColor=#ffffff;strokeColor=#000000;" parent="1" vertex="1">
                    <mxGeometry x="120" y="420" width="60" height="25" as="geometry"/>
                </mxCell>
                <mxCell id="50" value="stat" style="rounded=1;whiteSpace=wrap;html=1;verticalAlign=top;arcSize=10;fillColor=#6a00ff;fontColor=#ffffff;strokeColor=#000000;" parent="1" vertex="1">
                    <mxGeometry x="45" y="570" width="70" height="60" as="geometry"/>
                </mxCell>
                <mxCell id="51" value="S" style="rounded=1;whiteSpace=wrap;html=1;fillColor=#d80073;fontColor=#ffffff;fontSize=22;strokeColor=#000000;" parent="1" vertex="1">
                    <mxGeometry x="50" y="595" width="60" height="25" as="geometry"/>
                </mxCell>
                <mxCell id="55" value="begin" style="rounded=1;whiteSpace=wrap;html=1;verticalAlign=middle;arcSize=10;fillColor=#d80073;fontColor=#ffffff;fontSize=22;strokeColor=#000000;" parent="1" vertex="1">
                    <mxGeometry x="335" y="405" width="70" height="40" as="geometry"/>
                </mxCell>
                <mxCell id="56" value="S" style="rounded=1;whiteSpace=wrap;html=1;verticalAlign=middle;arcSize=10;fillColor=#d80073;fontColor=#ffffff;fontSize=22;strokeColor=#000000;" parent="1" vertex="1">
                    <mxGeometry x="420" y="405" width="70" height="40" as="geometry"/>
                </mxCell>
                <mxCell id="57" value=";" style="rounded=1;whiteSpace=wrap;html=1;verticalAlign=middle;arcSize=10;fillColor=#fa6800;fontColor=#000000;fontSize=22;strokeColor=#000000;" parent="1" vertex="1">
                    <mxGeometry x="510" y="405" width="70" height="40" as="geometry"/>
                </mxCell>
                <mxCell id="58" value="S" style="rounded=1;whiteSpace=wrap;html=1;verticalAlign=middle;arcSize=10;fillColor=#a20025;fontColor=#ffffff;fontSize=22;strokeColor=#000000;" parent="1" vertex="1">
                    <mxGeometry x="600" y="405" width="70" height="40" as="geometry"/>
                </mxCell>
                <mxCell id="59" value=";" style="rounded=1;whiteSpace=wrap;html=1;verticalAlign=middle;arcSize=10;fillColor=#a20025;fontColor=#ffffff;fontSize=22;strokeColor=#000000;" parent="1" vertex="1">
                    <mxGeometry x="690" y="405" width="70" height="40" as="geometry"/>
                </mxCell>
                <mxCell id="60" value="end" style="rounded=1;whiteSpace=wrap;html=1;verticalAlign=middle;arcSize=10;fillColor=#a20025;fontColor=#ffffff;fontSize=22;strokeColor=#000000;" parent="1" vertex="1">
                    <mxGeometry x="780" y="405" width="70" height="40" as="geometry"/>
                </mxCell>
                <mxCell id="197" value="1" style="ellipse;whiteSpace=wrap;html=1;aspect=fixed;fontSize=17;strokeColor=#000000;verticalAlign=middle;" parent="1" vertex="1">
                    <mxGeometry x="-30" y="30" width="40" height="40" as="geometry"/>
                </mxCell>
                <mxCell id="198" value="2" style="ellipse;whiteSpace=wrap;html=1;aspect=fixed;fontSize=17;strokeColor=#000000;verticalAlign=middle;" parent="1" vertex="1">
                    <mxGeometry x="-30" y="120" width="40" height="40" as="geometry"/>
                </mxCell>
                <mxCell id="199" value="3" style="ellipse;whiteSpace=wrap;html=1;aspect=fixed;fontSize=17;strokeColor=#000000;verticalAlign=middle;" parent="1" vertex="1">
                    <mxGeometry x="-30" y="220" width="40" height="40" as="geometry"/>
                </mxCell>
                <mxCell id="200" value="4" style="ellipse;whiteSpace=wrap;html=1;aspect=fixed;fontSize=17;strokeColor=#000000;verticalAlign=middle;" parent="1" vertex="1">
                    <mxGeometry x="-30" y="400" width="40" height="40" as="geometry"/>
                </mxCell>
                <mxCell id="187" value="" style="endArrow=none;dashed=1;html=1;dashPattern=1 3;strokeWidth=2;fontSize=17;endSize=10;strokeColor=#000000;" parent="1" edge="1">
                    <mxGeometry y="90" width="50" height="50" as="geometry">
                        <mxPoint x="849.9999999999998" y="90" as="sourcePoint"/>
                        <mxPoint y="90" as="targetPoint"/>
                    </mxGeometry>
                </mxCell>
                <mxCell id="188" value="" style="endArrow=none;dashed=1;html=1;dashPattern=1 3;strokeWidth=2;fontSize=17;endSize=10;strokeColor=#000000;" parent="1" edge="1">
                    <mxGeometry y="90" width="50" height="50" as="geometry">
                        <mxPoint x="849.9999999999998" y="190" as="sourcePoint"/>
                        <mxPoint x="2.41584530158434e-13" y="190" as="targetPoint"/>
                    </mxGeometry>
                </mxCell>
                <mxCell id="189" value="" style="endArrow=none;dashed=1;html=1;dashPattern=1 3;strokeWidth=2;fontSize=17;endSize=10;strokeColor=#000000;" parent="1" edge="1">
                    <mxGeometry y="90" width="50" height="50" as="geometry">
                        <mxPoint x="850.0000000000001" y="380" as="sourcePoint"/>
                        <mxPoint x="2.41584530158434e-13" y="380" as="targetPoint"/>
                    </mxGeometry>
                </mxCell>
                <mxCell id="206" value="" style="shape=curlyBracket;whiteSpace=wrap;html=1;rounded=1;flipH=1;fontSize=17;strokeColor=#000000;verticalAlign=middle;rotation=-90;" parent="1" vertex="1">
                    <mxGeometry x="580" y="-240" width="20" height="510" as="geometry"/>
                </mxCell>
                <mxCell id="207" value="Tokens" style="text;html=1;strokeColor=none;fillColor=none;align=center;verticalAlign=middle;whiteSpace=wrap;rounded=0;fontSize=17;" parent="1" vertex="1">
                    <mxGeometry x="560" y="-20" width="60" height="20" as="geometry"/>
                </mxCell>
                <mxCell id="210" style="edgeStyle=orthogonalEdgeStyle;html=1;exitX=0.5;exitY=1;exitDx=0;exitDy=0;entryX=0.5;entryY=0;entryDx=0;entryDy=0;fontSize=17;endArrow=open;endFill=0;endSize=10;strokeColor=#000000;" parent="1" source="208" target="2" edge="1">
                    <mxGeometry relative="1" as="geometry"/>
                </mxCell>
                <mxCell id="208" value="Current&lt;br&gt;Non-Terminal" style="text;html=1;strokeColor=none;fillColor=none;align=center;verticalAlign=middle;whiteSpace=wrap;rounded=0;fontSize=17;" parent="1" vertex="1">
                    <mxGeometry x="57.5" y="-30" width="115" height="45" as="geometry"/>
                </mxCell>
                <mxCell id="212" style="edgeStyle=orthogonalEdgeStyle;html=1;exitX=0.5;exitY=1;exitDx=0;exitDy=0;entryX=0;entryY=0.5;entryDx=0;entryDy=0;fontSize=17;endArrow=open;endFill=0;endSize=10;strokeColor=#000000;" parent="1" source="211" target="3" edge="1">
                    <mxGeometry relative="1" as="geometry"/>
                </mxCell>
                <mxCell id="211" value="Current&lt;br&gt;Token" style="text;html=1;strokeColor=none;fillColor=none;align=center;verticalAlign=middle;whiteSpace=wrap;rounded=0;fontSize=17;" parent="1" vertex="1">
                    <mxGeometry x="215" y="-10" width="115" height="45" as="geometry"/>
                </mxCell>
                <mxCell id="214" style="edgeStyle=orthogonalEdgeStyle;html=1;exitX=0.5;exitY=0;exitDx=0;exitDy=0;entryX=0.5;entryY=1;entryDx=0;entryDy=0;fontSize=17;endArrow=open;endFill=0;endSize=10;strokeColor=#000000;" parent="1" source="213" target="36" edge="1">
                    <mxGeometry relative="1" as="geometry"/>
                </mxCell>
                <mxCell id="213" value="Token Parsed" style="text;html=1;strokeColor=none;fillColor=none;align=center;verticalAlign=middle;whiteSpace=wrap;rounded=0;fontSize=17;" parent="1" vertex="1">
                    <mxGeometry x="312.5" y="300" width="115" height="45" as="geometry"/>
                </mxCell>
                <mxCell id="215" value="" style="shape=curlyBracket;whiteSpace=wrap;html=1;rounded=1;flipH=1;fontSize=17;strokeColor=#000000;verticalAlign=middle;rotation=-90;" parent="1" vertex="1">
                    <mxGeometry x="135" y="-175" width="20" height="280" as="geometry"/>
                </mxCell>
                <mxCell id="216" value="Parse Tree" style="text;html=1;strokeColor=none;fillColor=none;align=center;verticalAlign=middle;whiteSpace=wrap;rounded=0;fontSize=17;" parent="1" vertex="1">
                    <mxGeometry x="97.5" y="-70" width="95" height="20" as="geometry"/>
                </mxCell>
                <mxCell id="218" style="edgeStyle=orthogonalEdgeStyle;html=1;exitX=1;exitY=0.5;exitDx=0;exitDy=0;entryX=0;entryY=0.5;entryDx=0;entryDy=0;fontSize=17;endArrow=open;endFill=0;endSize=10;strokeColor=#000000;" parent="1" source="217" target="29" edge="1">
                    <mxGeometry relative="1" as="geometry"/>
                </mxCell>
                <mxCell id="217" value="Only matching rule is a stat" style="text;html=1;strokeColor=none;fillColor=none;align=center;verticalAlign=middle;whiteSpace=wrap;rounded=0;fontSize=17;" parent="1" vertex="1">
                    <mxGeometry x="-105" y="320" width="115" height="45" as="geometry"/>
                </mxCell>
            </root>
        </mxGraphModel>
    </diagram>
</mxfile>